<svg xmlns="http://www.w3.org/2000/svg" width="198.913" height="72" viewBox="0 0 198.913 72"><path d="M112.106,42.839a20.364,20.364,0,0,0,13.138-4.177l-3.935-7.021a14.48,14.48,0,0,1-8.234,2.784c-5.2,0-8.957-3.269-8.957-9.019s3.753-8.959,8.9-8.959c2.966,0,5.327.91,8.17,2.967l4.058-7.2a20.463,20.463,0,0,0-13.138-4.237c-9.686,0-18.16,6.779-18.16,17.434S102,42.839,112.106,42.839Z" fill="#fff"/><path d="M153.753,28.068c-1.27,3.451-4.177,5.932-7.868,5.932-4.237,0-6.356-2.36-6.356-6.9V8.7h-9.988V28.977c0,8.777,5.145,13.922,13.2,13.922a13.121,13.121,0,0,0,11.018-5.2v4.479h9.989V8.7h-9.989V28.068Z" fill="#fff"/><path d="M183.6,42.9c8.414,0,15.255-3.45,15.315-10.957,0-5.75-3.511-8.9-13.559-10.775-5.025-.908-6.235-1.635-6.235-3.027.06-1.695,1.574-2.239,4.479-2.239a29.559,29.559,0,0,1,12.107,2.663l1.271-8.172A36.349,36.349,0,0,0,184.2,7.971c-7.869,0-14.59,3.329-14.71,10.776,0,5.688,3.39,8.595,13.136,10.169,5.085.848,6.718,1.576,6.718,3.33,0,2.24-2.48,2.663-5.144,2.663A31.873,31.873,0,0,1,170.521,31.7l-1.451,8.172A32.58,32.58,0,0,0,183.6,42.9Z" fill="#fff"/><path d="M13.342,16.382H34.414V7.971H11.983V7.98C4.727,8.175,0,12.279,0,19.957V42.173H10.049V31.36H31.437V23.128H10.049v-2.2C10.049,18.04,11.23,16.663,13.342,16.382Z" fill="#fff"/><path d="M81.675,7.451A25.436,25.436,0,0,1,51.02,47.493l2.18-2.562a3.789,3.789,0,0,0-.28-5.193,3.892,3.892,0,0,1,.477.286A17.845,17.845,0,0,0,76.3,12.824a3.8,3.8,0,1,0,5.371-5.374Z" fill="#fff"/><path d="M47.611,33.2a3.79,3.79,0,0,1-6.827,3.3A25.435,25.435,0,0,1,81.675,7.451,3.8,3.8,0,0,1,76.3,12.823,17.848,17.848,0,0,0,47.611,33.2Z" fill="#43c5e6"/><path d="M45.868,53.549a3.788,3.788,0,0,1-5.78-4.9l7.334-8.618a3.788,3.788,0,1,1,5.78,4.9Z" fill="#29ade3"/><path d="M193.886,72a6.01,6.01,0,0,1-1.669-.233,3.888,3.888,0,0,1-1.295-.609l.572-1.268a3.882,3.882,0,0,0,1.114.551,4.146,4.146,0,0,0,1.29.208,2.076,2.076,0,0,0,1.061-.213.645.645,0,0,0,.342-.567.544.544,0,0,0-.2-.433,1.487,1.487,0,0,0-.519-.274q-.316-.1-.857-.229a12.328,12.328,0,0,1-1.364-.4,2.2,2.2,0,0,1-.909-.634,1.711,1.711,0,0,1-.379-1.165,2.022,2.022,0,0,1,.342-1.15,2.321,2.321,0,0,1,1.035-.816,4.189,4.189,0,0,1,1.689-.3,5.623,5.623,0,0,1,1.363.166,4.043,4.043,0,0,1,1.164.478l-.518,1.278a4.054,4.054,0,0,0-2.018-.571,1.893,1.893,0,0,0-1.044.227.7.7,0,0,0-.339.6.59.59,0,0,0,.391.557,6.121,6.121,0,0,0,1.191.358,11.981,11.981,0,0,1,1.362.4,2.264,2.264,0,0,1,.91.625,1.678,1.678,0,0,1,.379,1.154,1.987,1.987,0,0,1-.347,1.138,2.344,2.344,0,0,1-1.046.816A4.25,4.25,0,0,1,193.886,72Zm-7.643-1.434a2.308,2.308,0,0,0,1.165-.3,2.142,2.142,0,0,0,.816-.826,2.6,2.6,0,0,0,0-2.412,2.126,2.126,0,0,0-.816-.826,2.444,2.444,0,0,0-2.331,0,2.142,2.142,0,0,0-.816.826,2.6,2.6,0,0,0,0,2.412,2.119,2.119,0,0,0,.816.826A2.327,2.327,0,0,0,186.243,70.566Zm0,1.434a4.237,4.237,0,0,1-2.043-.488,3.643,3.643,0,0,1-1.426-1.347,3.863,3.863,0,0,1,0-3.858A3.643,3.643,0,0,1,184.2,64.96a4.508,4.508,0,0,1,4.081,0,3.713,3.713,0,0,1,0,6.551A4.209,4.209,0,0,1,186.243,72Zm-6.936-7.4h1.685v7.279h-1.685Zm-1.727,0v7.279H176.2l-3.629-4.418v4.418H170.9V64.6H172.3l3.619,4.42V64.6Zm-8.786-2.09h1.748L168.659,64h-1.268Zm-1.3,2.09h1.684v7.279h-1.684Zm-3.307,7.279-.01-4.367-2.142,3.6h-.76l-2.13-3.5v4.273h-1.582V64.6h1.394l2.725,4.524,2.683-4.524h1.382l.022,7.279h-1.582Zm-11.875-1.309a2.3,2.3,0,0,0,1.164-.3,2.138,2.138,0,0,0,.817-.826,2.6,2.6,0,0,0,0-2.412,2.122,2.122,0,0,0-.817-.826,2.442,2.442,0,0,0-2.33,0,2.149,2.149,0,0,0-.816.826,2.6,2.6,0,0,0,0,2.412,2.126,2.126,0,0,0,.816.826A2.327,2.327,0,0,0,152.312,70.566Zm0,1.434a4.237,4.237,0,0,1-2.043-.488,3.643,3.643,0,0,1-1.426-1.347,3.876,3.876,0,0,1,0-3.858,3.643,3.643,0,0,1,1.426-1.347,4.508,4.508,0,0,1,4.081,0,3.712,3.712,0,0,1,0,6.551A4.217,4.217,0,0,1,152.312,72Zm-8.891-1.507a2.454,2.454,0,0,0,1.742-.608,2.415,2.415,0,0,0,0-3.3,2.449,2.449,0,0,0-1.742-.609h-1.539v4.514ZM140.2,64.6h3.308a4.654,4.654,0,0,1,2.1.453,3.392,3.392,0,0,1,1.414,1.274,3.878,3.878,0,0,1,0,3.827,3.393,3.393,0,0,1-1.414,1.274,4.654,4.654,0,0,1-2.1.452H140.2Zm-1.726,0v7.279h-1.383l-3.629-4.418v4.418h-1.665V64.6h1.394l3.618,4.42V64.6Zm-11.928,5.97a2.3,2.3,0,0,0,1.165-.3,2.142,2.142,0,0,0,.816-.826,2.6,2.6,0,0,0,0-2.412,2.126,2.126,0,0,0-.816-.826,2.444,2.444,0,0,0-2.331,0,2.136,2.136,0,0,0-.816.826,2.6,2.6,0,0,0,0,2.412,2.119,2.119,0,0,0,.816.826A2.332,2.332,0,0,0,126.544,70.566Zm0,1.434a4.237,4.237,0,0,1-2.043-.488,3.643,3.643,0,0,1-1.426-1.347,3.863,3.863,0,0,1,0-3.858A3.643,3.643,0,0,1,124.5,64.96a4.508,4.508,0,0,1,4.081,0,3.712,3.712,0,0,1,0,6.551A4.217,4.217,0,0,1,126.544,72Zm-7.507,0a4.179,4.179,0,0,1-2.013-.482,3.625,3.625,0,0,1-1.415-1.342,3.908,3.908,0,0,1,0-3.878,3.626,3.626,0,0,1,1.415-1.342,4.2,4.2,0,0,1,2.023-.482,4.251,4.251,0,0,1,1.711.332,3.422,3.422,0,0,1,1.284.958l-1.081,1a2.327,2.327,0,0,0-1.831-.853,2.425,2.425,0,0,0-1.2.3,2.1,2.1,0,0,0-.827.826,2.447,2.447,0,0,0-.3,1.207,2.421,2.421,0,0,0,.3,1.205,2.106,2.106,0,0,0,.827.826,2.416,2.416,0,0,0,1.2.3,2.314,2.314,0,0,0,1.831-.863l1.081,1a3.377,3.377,0,0,1-1.29.968A4.281,4.281,0,0,1,119.037,72Zm-7.769-1.476v1.351h-5.636V64.6h5.5v1.353h-3.826V67.53h3.378v1.309h-3.378v1.685Zm-11-.031a2.456,2.456,0,0,0,1.742-.608,2.415,2.415,0,0,0,0-3.3,2.45,2.45,0,0,0-1.742-.609H98.727v4.514Zm-3.224-5.9h3.309a4.647,4.647,0,0,1,2.1.453,3.38,3.38,0,0,1,1.414,1.274,3.872,3.872,0,0,1,0,3.827,3.375,3.375,0,0,1-1.414,1.274,4.643,4.643,0,0,1-2.1.452H97.042Zm95.834-7.263a2.311,2.311,0,0,0,1.165-.3,2.152,2.152,0,0,0,.816-.825,2.6,2.6,0,0,0,0-2.412,2.13,2.13,0,0,0-.816-.826,2.444,2.444,0,0,0-2.331,0,2.119,2.119,0,0,0-.816.826,2.6,2.6,0,0,0,0,2.412,2.108,2.108,0,0,0,.816.825A2.327,2.327,0,0,0,192.876,57.334Zm0,1.436a4.237,4.237,0,0,1-2.043-.488,3.643,3.643,0,0,1-1.426-1.347,3.864,3.864,0,0,1,0-3.858,3.644,3.644,0,0,1,1.426-1.347,4.5,4.5,0,0,1,4.081,0,3.632,3.632,0,0,1,1.942,3.276,3.632,3.632,0,0,1-1.942,3.275A4.209,4.209,0,0,1,192.876,58.769ZM184.822,50.8a1.068,1.068,0,0,1-.494-.109,3.7,3.7,0,0,1-.472-.3,2.572,2.572,0,0,0-.276-.188.431.431,0,0,0-.212-.063.449.449,0,0,0-.353.152.656.656,0,0,0-.146.433h-.822a1.842,1.842,0,0,1,.348-1.109,1.057,1.057,0,0,1,.869-.41,1.029,1.029,0,0,1,.484.109,3.606,3.606,0,0,1,.484.306,3.139,3.139,0,0,0,.274.188.439.439,0,0,0,.213.061.445.445,0,0,0,.346-.152.6.6,0,0,0,.152-.41h.821a1.763,1.763,0,0,1-.349,1.081A1.059,1.059,0,0,1,184.822,50.8Zm.364,5-1.154-2.787-1.154,2.787Zm.529,1.28h-3.378l-.644,1.558h-1.727l3.244-7.278h1.666l3.255,7.278h-1.77Zm-9.915,3.97a2.462,2.462,0,0,1-.529-.057,1.506,1.506,0,0,1-.437-.16l.249-.7a1.572,1.572,0,0,0,.677.156q.54,0,.54-.334c0-.2-.169-.3-.51-.3h-.354l.273-1.1h.862l-.147.6a1.079,1.079,0,0,1,.682.287.794.794,0,0,1,.223.577.861.861,0,0,1-.415.755A1.986,1.986,0,0,1,175.8,61.056Zm.563-2.287a4.168,4.168,0,0,1-2.013-.484,3.609,3.609,0,0,1-1.414-1.341,3.908,3.908,0,0,1,0-3.878,3.615,3.615,0,0,1,1.414-1.342,4.507,4.507,0,0,1,3.734-.15,3.437,3.437,0,0,1,1.286.958l-1.083,1a2.323,2.323,0,0,0-1.829-.853,2.421,2.421,0,0,0-1.207.3,2.1,2.1,0,0,0-.826.826,2.6,2.6,0,0,0,0,2.412,2.107,2.107,0,0,0,.826.825,2.439,2.439,0,0,0,1.207.3,2.31,2.31,0,0,0,1.829-.863l1.083,1a3.353,3.353,0,0,1-1.292.968A4.256,4.256,0,0,1,176.363,58.769Zm-7.649-2.963L167.56,53.02l-1.153,2.787Zm.531,1.28h-3.38l-.643,1.558h-1.727l3.244-7.278H168.4l3.254,7.278H169.89Zm-8.395-3.08a1.158,1.158,0,0,0-.4-.941,1.771,1.771,0,0,0-1.155-.328h-1.371v2.536H159.3a1.747,1.747,0,0,0,1.155-.334A1.147,1.147,0,0,0,160.85,54.006Zm.029,4.638-1.4-2.027h-1.549v2.027h-1.685V51.365h3.151a4.046,4.046,0,0,1,1.678.322,2.5,2.5,0,0,1,1.1.915,2.529,2.529,0,0,1,.385,1.405,2.373,2.373,0,0,1-1.5,2.3l1.633,2.338Zm-10.122-5.906h-2.331V51.365h6.345v1.373h-2.329v5.906h-1.685Zm-6.213,6.031a5.981,5.981,0,0,1-1.671-.235,3.885,3.885,0,0,1-1.294-.608l.572-1.268a3.928,3.928,0,0,0,1.113.551,4.146,4.146,0,0,0,1.29.208,2.071,2.071,0,0,0,1.061-.213.647.647,0,0,0,.344-.568.546.546,0,0,0-.2-.431,1.523,1.523,0,0,0-.519-.274c-.213-.07-.5-.147-.858-.229a12.135,12.135,0,0,1-1.363-.4,2.215,2.215,0,0,1-.91-.634,1.717,1.717,0,0,1-.38-1.166,2.028,2.028,0,0,1,.342-1.149,2.321,2.321,0,0,1,1.035-.816,4.19,4.19,0,0,1,1.69-.3,5.61,5.61,0,0,1,1.362.166,4.013,4.013,0,0,1,1.166.479l-.52,1.278a4.053,4.053,0,0,0-2.017-.573,1.9,1.9,0,0,0-1.045.229.7.7,0,0,0-.338.6.593.593,0,0,0,.39.557,6.143,6.143,0,0,0,1.191.359,12.089,12.089,0,0,1,1.363.395,2.262,2.262,0,0,1,.909.625,1.671,1.671,0,0,1,.381,1.154,1.989,1.989,0,0,1-.349,1.138,2.342,2.342,0,0,1-1.045.816A4.248,4.248,0,0,1,144.544,58.769Zm-6.369-7.4h1.683v7.278h-1.683Zm-2.293,0v7.278H134.5l-3.629-4.419v4.419h-1.666V51.365H130.6l3.619,4.419V51.365Zm-10.654,0h1.683v7.278h-1.683Zm-3.874,7.278-.01-4.366-2.143,3.6h-.759l-2.132-3.505v4.275h-1.582V51.367h1.394l2.725,4.524,2.683-4.524h1.382l.022,7.279ZM108.8,57.261a2.446,2.446,0,0,0,1.742-.608,2.415,2.415,0,0,0,0-3.3,2.446,2.446,0,0,0-1.742-.608h-1.539v4.512Zm-3.222-5.9h3.307a4.646,4.646,0,0,1,2.095.453,3.4,3.4,0,0,1,1.416,1.274,3.885,3.885,0,0,1,0,3.827,3.4,3.4,0,0,1-1.416,1.274,4.662,4.662,0,0,1-2.095.452h-3.307Zm-4.269,4.441-1.155-2.787L99,55.806Zm.529,1.28H98.457l-.644,1.558H96.086l3.246-7.278H101l3.256,7.278h-1.768Z" fill="#43c5e6"/></svg>
